<?xml version="1.0" encoding="UTF-8"?>
<svg id="Layer_2" data-name="Layer 2" xmlns="http://www.w3.org/2000/svg" viewBox="0 0 56.61 51.11">
  <defs>
    <style>
      .cls-1 {
        fill: #f8b400;
      }
    </style>
  </defs>
  <g id="Capa_1" data-name="Capa 1">
    <path class="cls-1" d="M55.74,15.8l-7.42-4.27V2.95h-6.95v4.57L28.32,0,.88,15.8c-.54.31-.88.91-.88,1.57v31.97c0,.98.75,1.78,1.66,1.78h11.85c.92,0,1.66-.8,1.66-1.78v-22.73c0-.6.29-1.17.76-1.5l12.31-7.7,12.43,7.65c.48.33.77.89.77,1.5v22.78c0,.98.75,1.78,1.66,1.78h11.85c.92,0,1.66-.8,1.66-1.78v-31.97c0-.65-.34-1.26-.87-1.57Z"/>
  </g>
</svg>